<svg xmlns="http://www.w3.org/2000/svg" viewBox="0 0 100 100" fill="none">
  <defs>
    <filter id="shadow" x="-50%" y="-50%" width="200%" height="200%">
      <feGaussianBlur in="SourceAlpha" stdDeviation="3" result="blur"/>
      <feOffset dx="2" dy="2" result="offsetBlur"/>
      <feFlood flood-color="#000000" flood-opacity="0.3"/>
      <feComposite in2="offsetBlur" operator="in"/>
      <feMerge>
        <feMergeNode/>
        <feMergeNode in="SourceGraphic"/>
      </feMerge>
    </filter>
    <linearGradient id="greenGrad" x1="0%" y1="0%" x2="100%" y2="100%">
      <stop offset="0%" style="stop-color:#4ADE80;stop-opacity:1" />
      <stop offset="100%" style="stop-color:#22C55E;stop-opacity:1" />
    </linearGradient>
  </defs>
  
  <g filter="url(#shadow)">
    <!-- Main Bubble -->
    <path d="M50 10C27.9 10 10 27.9 10 50c0 8.8 2.9 17 7.9 23.8L12 90l17.1-5.6C35.2 88.1 42.4 90 50 90c22.1 0 40-17.9 40-40S72.1 10 50 10z" fill="url(#greenGrad)"/>
    
    <!-- Phone Icon -->
    <path d="M68.8 62.4c-1.3-.7-7.9-3.9-9.1-4.3-1.2-.5-2.1-.7-3 0.7-0.9 1.3-3.5 4.3-4.3 5.2-.8 0.9-1.6 1-2.9 0.3-1.3-.7-5.4-2-10.3-6.4-3.8-3.4-6.4-7.6-7.1-8.9-.7-1.3-.1-2 0.6-2.6 0.6-0.6 1.3-1.5 1.9-2.3 0.6-0.8 0.9-1.3 1.3-2.2 0.4-0.9 0.2-1.6-.1-2.3-.3-.7-3-7.2-4.1-9.9-1.1-2.6-2.2-2.3-3-2.3H26c-0.9 0-2.3 0.3-3.5 1.6-1.2 1.3-4.7 4.6-4.7 11.2 0 6.6 4.8 13 5.5 13.9 0.7 0.9 9.5 14.5 23 20.3 3.2 1.4 5.7 2.2 7.7 2.8 3.3 1.1 6.3 0.9 8.7 0.5 2.6-.4 7.9-3.2 9-6.3 1.1-3.1 1.1-5.7 0.8-6.3-.3-.6-1.2-1-2.5-1.7z" fill="white"/>
  </g>
</svg>
